<?xml version="1.0" standalone="no"?>
<!DOCTYPE svg PUBLIC "-//W3C//DTD SVG 20010904//EN"
 "http://www.w3.org/TR/2001/REC-SVG-20010904/DTD/svg10.dtd">
<svg version="1.0" xmlns="http://www.w3.org/2000/svg"
 width="512.000000pt" height="512.000000pt" viewBox="0 0 512.000000 512.000000"
 preserveAspectRatio="xMidYMid meet">

<g transform="translate(0.000000,512.000000) scale(0.100000,-0.100000)"
fill="#000000" stroke="none">
<path d="M3678 4749 c-28 -16 -35 -37 -52 -159 -24 -168 -20 -158 -79 -185
-29 -13 -69 -26 -89 -29 -21 -3 -54 -8 -73 -11 -41 -7 -65 -28 -65 -59 0 -38
32 -57 113 -66 89 -10 140 -30 160 -62 8 -12 23 -79 32 -148 19 -141 32 -170
74 -170 45 0 57 25 76 160 10 69 22 135 26 148 12 30 76 58 169 73 81 13 110
30 110 64 0 43 -22 56 -118 71 -103 15 -149 34 -161 67 -4 12 -16 78 -25 147
-15 109 -20 128 -42 148 -28 25 -32 26 -56 11z m54 -413 l34 -34 -33 -27 -34
-27 -32 31 -31 31 29 29 c17 16 31 29 32 30 0 1 16 -14 35 -33z"/>
<path d="M791 4574 c-12 -15 -21 -41 -21 -58 -1 -54 -37 -283 -49 -305 -18
-32 -78 -58 -187 -80 -99 -20 -124 -35 -124 -72 0 -38 32 -56 124 -67 96 -12
170 -42 188 -75 6 -12 22 -98 34 -191 24 -179 32 -198 79 -198 44 0 55 21 71
143 26 203 32 231 55 255 29 31 116 63 191 71 67 7 108 32 108 67 0 39 -31 55
-121 67 -91 11 -153 34 -183 67 -14 16 -24 63 -41 192 -25 182 -36 210 -81
210 -12 0 -32 -12 -43 -26z m117 -536 c-14 -9 -37 -31 -49 -47 l-23 -31 -19
30 c-11 17 -35 42 -54 54 l-34 24 34 21 c19 12 42 32 50 45 l16 23 53 -51 53
-51 -27 -17z"/>
<path d="M2592 4120 c-81 -17 -159 -73 -467 -334 l-310 -263 -5 89 c-4 74 -8
92 -24 104 -16 11 -81 14 -350 14 -182 0 -336 -4 -342 -8 -31 -21 -34 -53 -34
-445 l0 -395 -209 -177 c-180 -151 -212 -183 -227 -221 -30 -80 -8 -157 60
-208 25 -19 44 -21 192 -24 l164 -3 0 -953 c0 -910 1 -954 18 -969 17 -16 144
-17 1619 -17 1537 0 1601 1 1616 18 16 17 17 99 17 970 l0 951 163 3 c151 3
164 5 195 26 67 48 91 146 53 220 -14 26 -151 148 -469 417 -448 379 -450 380
-431 401 23 24 25 67 4 84 -8 7 -49 18 -90 25 -169 30 -242 120 -280 347 -22
134 -22 133 -50 146 -30 14 -71 1 -78 -25 -3 -10 -11 -51 -17 -90 -7 -40 -14
-73 -16 -73 -2 0 -89 72 -192 160 -219 188 -286 227 -397 234 -38 3 -89 1
-113 -4z m200 -144 c27 -12 139 -99 258 -199 l210 -178 -20 -38 c-20 -40 -68
-86 -107 -104 -20 -9 -38 4 -172 116 -189 160 -209 172 -286 172 -46 0 -70 -6
-102 -25 -23 -14 -393 -323 -823 -687 l-781 -663 -108 0 c-115 0 -131 6 -131
50 0 22 58 76 373 342 204 173 602 510 882 747 281 238 529 444 551 457 79 47
168 50 256 10z m-79 -358 c12 -6 73 -54 134 -106 107 -90 112 -96 93 -109 -25
-18 -26 -64 -2 -85 9 -9 56 -33 104 -53 103 -44 169 -98 193 -157 19 -47 70
-257 80 -331 9 -56 26 -77 64 -77 43 0 56 25 81 152 20 107 24 116 40 105 9
-7 168 -140 353 -297 l336 -285 -754 -3 c-414 -1 -1096 -1 -1515 0 l-761 3
107 90 c59 50 383 323 718 609 336 285 625 527 641 537 35 22 57 24 88 7z
m-1023 -105 l-1 -98 -240 -203 c-132 -112 -247 -206 -255 -209 -12 -4 -14 40
-14 301 l0 306 255 0 255 0 0 -97z m1715 9 c22 -54 94 -131 150 -159 l38 -20
-56 -39 c-65 -45 -120 -122 -138 -194 -15 -58 -24 -63 -33 -19 -8 44 -53 129
-84 162 -15 16 -47 43 -70 59 l-44 30 50 29 c59 34 114 95 139 155 10 24 20
44 23 44 3 0 14 -21 25 -48z m838 -757 c317 -268 377 -323 377 -345 0 -44 -16
-50 -132 -50 l-108 0 -273 231 c-149 127 -343 292 -430 365 l-157 134 14 28
c17 33 59 73 105 100 l34 21 96 -82 c53 -45 266 -226 474 -402z m-53 -1425 l0
-910 -875 0 -875 0 0 443 c0 365 -3 453 -15 502 -36 137 -128 249 -252 308
-59 27 -81 32 -168 35 -82 3 -111 0 -159 -17 -161 -57 -275 -187 -306 -350 -6
-31 -10 -234 -10 -487 l0 -434 -185 0 -185 0 0 910 0 910 1515 0 1515 0 0
-910z m-2087 240 c62 -23 128 -77 162 -130 53 -83 55 -109 55 -582 l0 -438
-335 0 -335 0 0 438 c0 473 2 499 55 582 33 52 100 107 159 129 69 27 169 27
239 1z"/>
<path d="M2837 1952 c-15 -17 -17 -68 -17 -534 0 -486 1 -516 18 -531 17 -15
68 -17 535 -17 455 0 517 2 531 16 14 14 16 76 16 539 0 508 -1 525 -19 535
-13 6 -199 10 -534 10 -485 0 -515 -1 -530 -18z m473 -287 l0 -185 -185 0
-185 0 0 185 0 185 185 0 185 0 0 -185z m490 0 l0 -185 -185 0 -185 0 0 185 0
185 185 0 185 0 0 -185z m-490 -490 l0 -185 -185 0 -185 0 0 185 0 185 185 0
185 0 0 -185z m490 0 l0 -185 -185 0 -185 0 0 185 0 185 185 0 185 0 0 -185z"/>
<path d="M4225 3818 c-27 -15 -32 -24 -39 -72 -11 -72 -37 -135 -63 -156 -23
-18 -48 -27 -124 -44 -15 -3 -31 -17 -38 -33 -17 -37 9 -70 76 -95 85 -31 106
-59 132 -168 13 -52 25 -102 27 -111 2 -9 16 -21 29 -27 39 -18 73 3 85 52 49
203 58 218 161 257 60 22 69 32 69 79 0 32 -23 50 -62 50 -35 1 -105 36 -122
62 -13 20 -29 74 -50 169 -3 14 -17 31 -31 37 -30 14 -25 14 -50 0z m58 -304
l33 -36 -26 -27 c-15 -14 -30 -33 -33 -41 -6 -13 -8 -13 -14 0 -3 8 -18 27
-33 41 l-26 27 30 35 c17 19 32 36 33 36 2 1 18 -15 36 -35z"/>
<path d="M552 1621 c-8 -5 -20 -39 -28 -77 -21 -100 -41 -135 -94 -161 -24
-13 -57 -23 -72 -23 -55 0 -89 -69 -50 -102 9 -8 39 -23 66 -33 83 -30 102
-56 133 -175 28 -112 44 -140 78 -140 40 0 55 23 75 111 32 147 37 154 135
199 83 39 85 41 85 74 0 39 -28 66 -70 66 -14 0 -43 9 -66 19 -47 21 -81 80
-90 159 -8 63 -28 92 -62 92 -15 0 -33 -4 -40 -9z m68 -372 l-34 -37 -32 36
-32 37 32 35 31 35 35 -34 35 -34 -35 -38z"/>
</g>
</svg>
