<svg width="213" height="44" viewBox="0 0 213 44" fill="none" xmlns="http://www.w3.org/2000/svg">
<path d="M33.53 21.9H38.96V28.17H43.61V21.9H49.04V39H43.61V31.62H38.96V39H33.53V21.9ZM60.4142 39.39C57.4342 39.39 55.1942 38.69 53.6942 37.29C52.2142 35.87 51.4742 33.6 51.4742 30.48C51.4742 27.42 52.2942 25.19 53.9342 23.79C55.5742 22.39 57.7442 21.69 60.4442 21.69C66.1242 21.69 68.9642 24.52 68.9642 30.18C68.9642 33.04 68.2642 35.29 66.8642 36.93C65.4842 38.57 63.3342 39.39 60.4142 39.39ZM60.2942 35.85C60.8542 35.85 61.3242 35.76 61.7042 35.58C62.0842 35.38 62.3842 35.04 62.6042 34.56C63.0242 33.74 63.2342 32.4 63.2342 30.54C63.2342 28.72 63.0242 27.4 62.6042 26.58C62.1842 25.74 61.4142 25.3 60.2942 25.26C59.8742 25.26 59.4342 25.31 58.9742 25.41C58.5342 25.49 58.2542 25.61 58.1342 25.77C57.8942 26.05 57.7042 26.65 57.5642 27.57C57.4442 28.47 57.3842 29.46 57.3842 30.54C57.3842 32.22 57.5442 33.45 57.8642 34.23C58.0842 34.81 58.3942 35.23 58.7942 35.49C59.1942 35.73 59.6942 35.85 60.2942 35.85ZM86.9216 39H81.2516L80.2316 34.68C80.1916 34.52 80.1216 34.25 80.0216 33.87C79.9416 33.47 79.8416 33.18 79.7216 33C79.6016 32.8 79.4316 32.67 79.2116 32.61C78.6516 32.63 77.8316 32.64 76.7516 32.64V39H71.3516V22.05C73.7716 21.87 76.0316 21.78 78.1316 21.78C80.0316 21.78 81.5716 21.94 82.7516 22.26C83.9316 22.56 84.8116 23.09 85.3916 23.85C85.9916 24.59 86.2916 25.61 86.2916 26.91C86.2916 28.13 86.0116 29.09 85.4516 29.79C84.8916 30.47 83.9916 30.88 82.7516 31.02V31.2C83.4516 31.26 84.0316 31.49 84.4916 31.89C84.9716 32.27 85.2916 32.76 85.4516 33.36L86.9216 39ZM76.7516 29.25C76.9316 29.27 77.2816 29.28 77.8016 29.28C79.3416 29.28 80.2416 29.15 80.5016 28.89C80.7416 28.65 80.8616 28.09 80.8616 27.21C80.8616 26.39 80.6416 25.83 80.2016 25.53C79.7816 25.23 79.0816 25.08 78.1016 25.08C77.8816 25.08 77.4316 25.1 76.7516 25.14V29.25ZM88.6039 21.9H101.054V25.5H94.0039V28.62H99.9439V31.86H94.0039V35.34H101.024V39H88.6039V21.9ZM120.315 39H113.115V21.2H106.675V16.2H126.755V21.2H120.315V39ZM138.459 35.25H133.479L132.579 39H127.059L132.579 21.9H139.629L144.909 39H139.359L138.459 35.25ZM135.939 25.59L134.169 31.92H137.739L136.059 25.59H135.939ZM157.5 29.97C158.86 30.13 159.83 30.59 160.41 31.35C160.99 32.09 161.28 32.99 161.28 34.05C161.28 34.71 161.18 35.34 160.98 35.94C160.78 36.52 160.54 37.02 160.26 37.44C159.98 37.84 159.74 38.1 159.54 38.22C158.74 38.74 156.3 39 152.22 39H146.4V21.9H153.45C155.05 21.9 156.34 21.99 157.32 22.17C158.32 22.33 159.13 22.71 159.75 23.31C160.37 23.89 160.68 24.78 160.68 25.98C160.68 27.02 160.42 27.86 159.9 28.5C159.4 29.14 158.6 29.58 157.5 29.82V29.97ZM155.1 25.53C154.9 25.33 154.66 25.21 154.38 25.17C154.12 25.11 153.7 25.08 153.12 25.08C152.54 25.08 152.1 25.09 151.8 25.11V28.77H152.1C152.2 28.77 152.62 28.77 153.36 28.77C154.1 28.77 154.59 28.72 154.83 28.62C155.01 28.54 155.17 28.33 155.31 27.99C155.47 27.65 155.55 27.28 155.55 26.88C155.55 26.28 155.4 25.83 155.1 25.53ZM155.61 35.55C155.75 35.43 155.86 35.21 155.94 34.89C156.04 34.55 156.09 34.21 156.09 33.87C156.09 33.45 156.03 33.06 155.91 32.7C155.81 32.32 155.67 32.05 155.49 31.89C155.31 31.71 155.05 31.59 154.71 31.53C154.39 31.47 153.84 31.44 153.06 31.44C152.56 31.44 152.14 31.45 151.8 31.47V35.82C152.74 35.84 153.58 35.83 154.32 35.79C155.06 35.73 155.49 35.65 155.61 35.55ZM163.479 21.9H168.879V35.04H175.869V39H163.479V21.9ZM177.657 21.9H190.107V25.5H183.057V28.62H188.997V31.86H183.057V35.34H190.077V39H177.657V21.9Z" fill="#897ABF"/>
<path d="M31.7599 36.3046C30.9787 37.043 30.0061 37.7233 28.8421 38.3457C27.678 38.968 26.5698 39.4707 25.5173 39.8537C22.1094 41.0941 19.1169 41.1759 16.5398 40.099C13.9628 39.0221 12.0039 36.6419 10.6632 32.9583C9.29507 29.1995 9.28844 26.0236 10.6433 23.4305C11.989 20.8124 14.5036 18.8329 18.1872 17.4922C19.9413 16.8538 21.8572 16.426 23.9349 16.209C24.1173 16.7102 24.3408 17.4801 24.6054 18.519C24.8609 19.5327 25.0115 20.2583 25.0572 20.6957L22.6891 21.5576C20.9601 22.1869 19.6081 22.7216 18.6331 23.1616C17.6741 23.5674 17.1263 23.8945 16.9896 24.1429C16.7414 24.6305 16.7132 25.4496 16.9049 26.6C17.0875 27.7255 17.3567 28.7768 17.7124 29.7541C18.3326 31.4581 19.0244 32.6961 19.7878 33.4682C20.5422 34.2153 21.2998 34.6206 22.0608 34.6842C22.7967 34.7569 23.8914 34.5287 25.3447 33.9997C26.4974 33.5802 27.9645 32.9327 29.7458 32.0573L31.7599 36.3046Z" fill="#897ABF"/>
</svg>
